<?xml version="1.0" encoding="UTF-8"?>
<svg id="Layer_1" xmlns="http://www.w3.org/2000/svg" version="1.1" viewBox="0 0 503.14 360">
  <!-- Generator: Adobe Illustrator 29.7.1, SVG Export Plug-In . SVG Version: 2.1.1 Build 8)  -->
  <defs>
    <style>
      .st0 {
        fill: #f3e6d0;
      }

      .st1 {
        fill: #87201b;
      }
    </style>
  </defs>
  <g>
    <path class="st1" d="M142.43,111.38l-.19,1.08-.08.46v.08s-.23,1.23-.23,1.23l-.29,1.64-.31,1.74-.22,1.26-.2,1.13-.1.54-.49,2.79-4.75,26.8h13.45l5.9-33.61.32-1.83.1-.55.17-.98.17-.97.28-1.58.32-1.83.23-1.32.03-.14h7.34l-.15.83-.25,1.41-.04.21-.2,1.15-.1.58-.4,2.24-6.42,36.4h13.44l3.76-21.24h0s3.54,0,3.54,0h0s-3.76,21.24-3.76,21.24h13.45l6.32-36.11,3.33-19.03h-13.37l-.1.59-.14.81-.12.67-.2,1.11-.16.9-.24,1.38-.2,1.12-.05.29-.19,1.06-.08.45-.27,1.5-2.08,11.71h-3.54s1.56-8.78,1.56-8.78l.44-2.5.08-.45.35-1.97.23-1.28.04-.21.17-.98.21-1.16.15-.85.17-.93.12-.69.12-.7.12-.67.07-.42h-42.96l-.07.37-.17.93-1.99,11.02h8.85l-.72,4.08ZM171.12,95.01v-.03h8.36l-.07.42-.12.67-.12.7-.12.69-.17.93-.15.85-.21,1.16-.17.98-.02.14-.24,1.35-.35,1.98-.08.45-.44,2.49-1.56,8.77h8.63l2.58-14.53.4-2.23.08-.45.26-1.45.24-1.35.15-.84.13-.74h8.29l-3.33,19-5.45,31.13h-8.35l3.76-21.24h-8.63l-3.76,21.24h-8.36l6.13-34.72.21-1.18.1-.55.22-1.26.15-.84.21-1.18.29-1.63.39-2.24.11-.62.26-1.46.78-4.42ZM140.27,102.29l1.19-6.59.13-.73h25.9l-1.17,6.49-.15.82h-8.77l-.61,3.5-.22,1.24-.07.42-.23,1.32-.32,1.82-.28,1.58-.17.97-.17.98-.1.55-.32,1.82-5.02,28.6h-8.35l4.5-25.39.25-1.42.09-.52.22-1.22.36-2.05.3-1.7.09-.52.24-1.33.1-.56.19-1.06,1.25-7.05h-8.84Z"/>
    <polygon class="st1" points="205.17 123.18 202.59 137.8 216.3 137.8 216.3 137.8 216.3 137.8 202.6 137.8 202.6 137.8 204.3 128.19 216.96 128.19 219.19 115.86 219.19 115.86 206.43 115.86 206.43 115.86 207.92 107.3 221.36 107.3 222.22 102.29 208.79 102.29 206.42 115.87 219.17 115.87 217.84 123.18 205.17 123.18"/>
    <polygon class="st1" points="186.95 150.12 214.19 150.12 215.05 145.11 192.91 145.11 196.85 122.83 201.76 94.98 204.08 94.98 223.48 94.98 223.48 94.98 223.48 94.98 204.08 94.98 196.68 94.98 193.07 115.42 186.95 150.12"/>
    <path class="st1" d="M130.87,204.41c.19.5.43.98.71,1.43.14.22.29.44.45.65.32.42.69.81,1.09,1.16.61.53,1.31.99,2.11,1.37.26.13.54.24.82.35l.43.16h14.8l.33-.09c.97-.27,1.84-.6,2.63-.99.53-.26,1.01-.55,1.47-.87,1.58-1.11,2.73-2.61,3.53-4.59.23-.57.43-1.17.61-1.82s.32-1.34.45-2.07l7.9-44.72h-13.45l-7.66,43.46-.15.13h-1.66,0s5.57,0,5.57,0l1.53-1.32,7.45-42.26h8.36l-7.38,41.78c-.9,5.29-2.92,7.24-6.89,8.36h-14c-2.92-1.11-4.87-3.69-3.97-8.36l7.31-41.78h8.35l-7.45,42.26h0s0,0,0,0l7.45-42.27h-13.45l-7.67,43.81c-.08.43-.14.84-.18,1.25-.06.55-.09,1.09-.09,1.6,0,0,0,.01,0,.02.01.61.07,1.19.17,1.74s.25,1.09.44,1.59Z"/>
    <path class="st1" d="M219.44,162.26l-1.11-1.32h-5.99l-1.53,1.32-1.74,9.89h0s0,.01,0,.01l1.07-6.08.15-.13h3.42l-1.51,8.69,4.36,1.47h8.75l1.65-9.4h1.55l-5.38,30.5h-1.5l1.55-8.9s0-.07.02-.11c0,0,0,0,0,0l-1.39,7.97c-.97,5.29-2.92,7.24-6.89,8.36h-14.41c-2.92-1.11-4.87-3.76-3.97-8.36l1.53-8.63h8.29l-1.6,9.12h0s0,0,0,0l1.6-9.13h-13.32l2.09-11.96s0,0,0,0c-.02.18-.04.37-.05.56-.02.22-.03.45-.03.68-.01.42,0,.85.03,1.27.02.21.04.43.07.64.06.43.16.85.29,1.27.13.42.3.83.51,1.23.09.17.19.35.3.52.76,1.19,1.95,2.24,3.77,3.02l.07.03,9.7,3.49-1.69,9.57-.15.13h-2.08,0s5.99,0,5.99,0l1.53-1.32,2.02-11.42-.97-1.53-10.44-3.76c-3.06-1.32-3.97-3.55-3.2-7.87l1.6-9.33c.97-5.29,2.99-7.24,6.89-8.36h11.9,0s-15.23,0-15.23,0l-.34.1c-.57.16-1.11.35-1.62.55s-.99.43-1.44.68c-1.35.75-2.43,1.72-3.29,2.95-.57.82-1.05,1.76-1.44,2.83-.2.54-.37,1.11-.53,1.71h0s1.54-8.82,1.54-8.82h-12.47l-2.89,16.65,2.2,13.02h.63l5.15-29.66h7.38l-8.77,50.13h-7.1l-5.01-29.66h-.56l-5.22,29.66h-7.45l8.84-50.13h6.24,0s0,0,0,0h-11.32l-9.73,55.15h12.54l3.35-19.04,3.22,19.04h11.33l1.68-9.61c-.04.56-.04,1.1,0,1.62s.11,1.03.21,1.52c.64,2.93,2.56,5.16,5.56,6.31l.43.16h15.22l.33-.09c.45-.13.88-.27,1.3-.42,1.65-.6,2.97-1.41,4.04-2.48.53-.54,1-1.14,1.41-1.82.2-.34.4-.7.57-1.08l-1.01,5.88h17.53l1.6-8.83h0c0,1.53.27,2.93.83,4.15.14.31.29.6.47.89.35.57.76,1.09,1.24,1.57.24.24.49.46.76.67.72.56,1.55,1.03,2.5,1.39l.43.16h15.22l.33-.09c.64-.18,1.24-.38,1.81-.61,3.93-1.6,5.91-4.47,6.88-9.72l3.86-21.88h-16.98s.29-1.67.29-1.67l1.67-9.48.07-.06.08-.07h3.42l-1.83,10.58h13.37l1.89-10.83s.01-.1.02-.15v.08s-1.04,5.88-1.04,5.88h-8.29l1.6-9.26-1.11-1.32h-5.99l-1.53,1.32-6.06,34.4h0s1.25-7.1,1.25-7.1h3.56l-1.48,8.29-.15.13h-2.08,0s5.99,0,5.99,0l1.53-1.32,2.16-12.12h-4.39l1.32-7.31h12.67l-3.34,18.94c-.97,5.29-2.92,7.24-6.89,8.36h-14.41c-2.92-1.11-4.87-3.76-3.97-8.36l5.85-33.42c.97-5.29,2.99-7.24,6.89-8.36h11.9,0s-15.23,0-15.23,0l-.34.1c-.52.15-1.01.31-1.48.49-2.19.86-3.81,2.11-5,3.9-.33.49-.63,1-.9,1.58-.2.44-.39.91-.56,1.41l.03-.17h-2.08l-6.27,35.51h2.09l-1.32,7.31h-12.46l1.25-7.31h2.09l6.27-35.51h-2.09l1.32-7.31h12.46s-17.53,0-17.53,0l-.59,3.25-.31,1.69s0,0,0,0c.16.99.14,2.12-.09,3.41l-1.46,8.36h-8.29l1.53-8.84ZM238.48,197.22h-1.9l5.38-30.5h1.85l-5.34,30.5Z"/>
    <polygon class="st1" points="279.43 209.54 282.78 190.5 286 209.54 297.32 209.54 306.97 154.4 306.97 154.4 294.5 154.4 291.61 171.04 293.81 184.06 294.43 184.06 299.59 154.4 306.97 154.4 298.19 204.53 291.09 204.53 286.08 174.87 285.52 174.87 280.3 204.53 272.85 204.53 281.69 154.4 287.94 154.4 287.94 154.4 287.94 154.4 276.61 154.4 266.88 209.54 279.43 209.54"/>
    <path class="st1" d="M339.83,197.98h7.31l1.53-1.32,6.06-34.4-1.11-1.32h-7.31l-6.48,37.04ZM343.38,197.85l-.15.13h-3.4l2.31-13.22,3.29-18.81h3.56l-5.62,31.9Z"/>
    <path class="st1" d="M324.33,209.54h23.25l.33-.09c.64-.18,1.24-.38,1.81-.61.43-.18.83-.37,1.22-.58.51-.27.98-.58,1.42-.92.31-.24.6-.49.87-.76.45-.45.86-.96,1.22-1.52.25-.37.48-.76.68-1.19.13-.26.25-.54.37-.82.46-1.14.82-2.44,1.1-3.94l4.82-27.56,1.02-5.85c.01-.07.02-.13.03-.19l-.02.11-5.35,30.55c-.97,5.29-2.92,7.24-6.89,8.36h-19.91l8.84-50.13h17.33,0s-22.41,0-22.41,0l-.1.59-1.15,6.72h-13.44l-2.37,13.58h12.74l-1.32,7.31h-12.67l-2.58,14.62h13.72l-1.25,7.31h-22.14l8.84-50.13h21.72s-26.8,0-26.8,0l-9.73,55.15h26.81ZM326.5,197.22h-13.33l1.69-9.61h12.66l2.23-12.33h-12.76l1.49-8.56h13.39l-5.38,30.5Z"/>
    <path class="st1" d="M159.85,260.61c.18-.65.32-1.34.45-2.07l1.13-6.37,1.87-10.58.04-.21.25-1.4.21-1.19.36-2.04.56-3.15.24-1.34,3.26-18.44h-13.45l-1.41,8.01-1.37,7.77-.56,3.19-.32,1.82-.22,1.25-.23,1.31-2.6,14.77-.94,5.34-.15.13h-1.66,0s5.57,0,5.57,0l1.53-1.32,1.44-8.16,1.62-9.18.23-1.31.22-1.22.34-1.91.56-3.19.23-1.29.32-1.82.92-5.21,1.58-8.98h8.36l-3.26,18.44-.24,1.34-.56,3.15-.36,2.04-.21,1.19-.25,1.4-.04.22-1.87,10.58-.6,3.42c-.9,5.29-2.92,7.24-6.89,8.36h-14c-1.8-.69-3.22-1.93-3.85-3.86-.39-1.21-.47-2.7-.12-4.49l3.15-18.02.96-5.51.22-1.27.29-1.66.54-3.07.21-1.22,1.93-11.03h8.35l-1.83,10.4-.78,4.42-.56,3.17-.31,1.78-.22,1.26-.24,1.37-3.2,18.16-.3,1.71h0s0,0,0,0l.3-1.73,3.2-18.15.24-1.37.22-1.26.31-1.78.56-3.17.78-4.43,1.83-10.4h-13.45l-.33,1.9-.57,3.27-.74,4.23-.21,1.22-.52,2.99-.28,1.6-.22,1.26-.21,1.23-.17.96-1.25,7.17-.27,1.52-.43,2.45-2.45,14.01c-.1.5-.17.99-.21,1.47-.04.48-.06.95-.05,1.4.01.61.07,1.19.17,1.74.09.49.22.95.38,1.4.02.06.04.13.06.19.19.5.43.98.71,1.43.14.22.29.44.45.65.32.42.69.81,1.09,1.16.2.18.42.35.64.51.45.32.94.61,1.47.86.26.13.54.24.82.35l.17.06.27.1h14.8l.33-.09c.65-.18,1.25-.39,1.81-.62.85-.35,1.61-.76,2.28-1.23.9-.64,1.67-1.4,2.3-2.3.16-.23.31-.46.45-.71.29-.49.54-1.01.77-1.58.23-.57.43-1.17.61-1.82Z"/>
    <polygon class="st1" points="192.51 249.97 192.73 248.74 192.96 247.42 193.34 245.23 193.95 241.74 194.2 240.35 198.84 213.81 186.37 213.81 183.6 229.74 183.47 230.46 184.73 237.88 184.76 238.07 184.98 239.38 185.62 243.17 185.67 243.48 186.3 243.48 186.32 243.36 186.92 239.9 187.14 238.62 187.76 235.06 188.54 230.61 191.45 213.81 198.83 213.81 194.19 240.35 193.95 241.74 193.34 245.22 192.95 247.42 192.72 248.73 192.51 249.97 191.55 255.41 190.06 263.95 182.96 263.95 182.69 262.37 180 246.44 179.75 244.97 179.52 243.59 179.12 241.24 178.5 237.6 177.94 234.29 177.39 234.29 176.88 237.14 176.31 240.4 175.93 242.54 175.72 243.74 175.48 245.13 172.17 263.95 164.71 263.95 167.59 247.63 168.66 241.56 168.87 240.39 169.24 238.28 169.8 235.1 170.05 233.72 173.56 213.81 179.8 213.81 179.8 213.81 179.8 213.81 168.48 213.81 165.21 232.33 164.97 233.67 164.42 236.83 164.06 238.87 163.85 240.05 162.07 250.14 161.75 251.92 161.22 254.93 158.75 268.96 171.29 268.96 174.64 249.92 177.45 266.52 177.86 268.96 177.86 268.96 189.19 268.96 191.56 255.41 192.51 249.97"/>
    <path class="st1" d="M207.46,242.72l-.4,2.32-.63,3.61-.4,2.3-.22,1.26-.78,4.44-.13.76h7.31l1.53-1.32.05-.3.24-1.38.23-1.32.41-2.35.65-3.7,1.6-9.06,2.87-16.29-1.11-1.32h-7.31l-3.91,22.36ZM211.55,239.63l-1.1,6.24-.64,3.66-.41,2.3-.22,1.27-.25,1.45-.48,2.73-.15.13h-3.4l.13-.76.78-4.44.22-1.26.4-2.3.63-3.61.41-2.32,3.03-17.34h3.56l-2.51,14.25Z"/>
    <path class="st1" d="M221.76,257.89l.24-1.38.25-1.42.42-2.41.66-3.77.25-1.43.87-4.95.6-3.43,2.45-13.98s0,0,0,0c.01-.06.02-.13.03-.19h0s0,0,0,0v.05s-2.48,14.12-2.48,14.12l-.6,3.44-.87,4.95-.25,1.43-.66,3.77-.42,2.41-.09.49c-.06.32-.12.62-.19.92-.11.48-.23.92-.36,1.35-1.1,3.62-3.01,5.16-6.35,6.09h-19.91l2.44-13.86.23-1.28.4-2.25.62-3.51.25-1.39,4.91-27.84h17.33,0s0,0,0,0h-22.41l-4.69,26.59-.25,1.4-.61,3.48-.39,2.2-.23,1.31-.22,1.23-.91,5.18-2.43,13.75h0s1.19,0,1.19,0h22.05l.33-.09c1.29-.36,2.4-.81,3.37-1.38.48-.28.93-.6,1.35-.94.41-.35.79-.72,1.14-1.14,1.39-1.65,2.27-3.88,2.83-6.88l.11-.64Z"/>
    <path class="st1" d="M311.57,246.53l1.74-9.88h-16.98l1.96-11.15.15-.13h3.42l-1.83,10.58h13.37l1.89-10.83s.01-.1.02-.14c0,0,0,0,0,0l-1.04,5.96h-8.29l1.6-9.26-1.11-1.32h-5.99l-1.53,1.32-6.06,34.4h0s1.25-7.1,1.25-7.1h3.56l-1.48,8.29-.08.07-.08.07h-2.08,0s5.99,0,5.99,0l1.53-1.32,2.16-12.12h-4.39l1.32-7.31h12.67l-3.34,18.94c-.97,5.29-2.92,7.24-6.89,8.36h-14.41c-.54-.2-1.04-.46-1.5-.77-.77-.52-1.41-1.19-1.88-2.02-.77-1.39-1.06-3.22-.6-5.56l5.85-33.42c.97-5.29,2.99-7.24,6.89-8.36h11.9,0s0,0,0,0h-15.23l-.34.1c-.32.09-.62.19-.92.29-.15.05-.29.11-.43.16-.14.05-.29.11-.43.16-.48.2-.94.42-1.37.67-.01,0-.03.02-.04.03-.41.24-.8.49-1.16.77-.02.02-.04.04-.06.05-.35.28-.68.57-.99.89-.03.04-.06.08-.1.11-.29.31-.56.63-.81.98-.04.06-.08.13-.12.2-.23.34-.45.68-.65,1.06-.05.09-.08.19-.13.28-.18.37-.36.74-.51,1.15-.04.11-.07.24-.12.36-.14.41-.29.82-.41,1.26-.04.14-.07.3-.1.44-.11.43-.22.86-.3,1.33,0,0,0,0,0,0l-1.54,8.92c-.98,5.29-2.92,6.96-6.89,8.08l-.84.21,1.08,3.77s0,0,0,0c.38-.18.73-.37,1.07-.57.04-.02.08-.05.12-.07.31-.19.6-.39.88-.61.06-.05.12-.1.18-.15.25-.21.49-.42.71-.65.07-.08.14-.15.22-.23.2-.22.4-.45.58-.69.08-.11.16-.23.23-.34.16-.23.31-.47.45-.72.09-.16.17-.33.25-.5.12-.23.23-.46.34-.71.1-.24.19-.5.28-.76.07-.21.15-.4.22-.62.15-.49.29-1,.41-1.55,0,0,0,0,0,0,0,0,0,0,0,0l-.69,3.94-2.45,14h0s0,0,0,0l1.27,4.41-.17.93-.28,1.55-.39,2.19h-6.41l-1.03-3.87-.47-1.76-2.4-8.97-.15-.56-1.59-5.94h-3.27l-.89,5.08-1.72,9.81-.7,3.99-.39,2.22h-8.36l.25-1.4.47-2.67.7-3.94,1.63-9.22,5.8-32.9h17.33,0s-22.41,0-22.41,0l-.07.39-1.19,6.92h-13.44l-2.37,13.58h12.74l-1.32,7.31h-12.67l-1.5,8.53-.24,1.39-.68,3.86-.15.84h13.72l-.38,2.2-.46,2.66-.25,1.44-.17,1.01h-22.14l.84-4.77.24-1.35.26-1.46.43-2.46.67-3.8.24-1.37,6.16-34.93h21.72s-26.8,0-26.8,0l-4.47,25.33-.55,3.1-.93,5.29-.25,1.43-.66,3.77-.43,2.41-.25,1.42-.24,1.38-1.94,11.01h0s9.76,0,9.76,0h30.49l.28-1.63.24-1.4.27-1.54.47-2.66.7-3.99,1.43-8.17,1.61,6.02.37,1.39.43,1.62,1.19,4.45.8,3.01.46,1.71.31,1.18h10.43l.04-.2.49-2.73.23-1.31c.31.59.69,1.13,1.13,1.62.07.08.14.17.22.25.54.56,1.16,1.05,1.87,1.47.15.09.31.17.47.25.34.17.68.34,1.05.48l.25.1.18.07h15.22l.33-.09c.22-.06.43-.13.65-.2.21-.07.41-.14.61-.21.48-.17.93-.36,1.36-.57.42-.21.81-.43,1.18-.68.32-.21.63-.43.92-.67,2.07-1.73,3.28-4.26,3.97-8.01l2.12-12ZM249,256.64h-13.33l.15-.84.68-3.86.24-1.39.37-2.08.25-1.44h12.66l.34-1.89,1.89-10.44h-12.76l1.49-8.56h13.39l-4.19,23.76-.87,4.93-.32,1.81Z"/>
    <path class="st1" d="M266.03,236.31h7.31l1.53-1.32,2.37-13.3-1.11-1.32h-7.31l-2.79,15.95ZM269.58,236.17l-.15.13h-3.4l1.91-10.93h3.56l-1.92,10.8Z"/>
    <path class="st1" d="M376.32,224.93l-.02.11-5.35,30.55c-.97,5.29-2.92,7.24-6.89,8.36h-14.41c-2.92-1.11-4.87-3.76-3.97-8.36l5.85-33.42c.97-5.29,2.99-7.24,6.89-8.36h11.9,0s-15.23,0-15.23,0l-.34.1c-.32.09-.62.19-.92.29-.13.05-.26.1-.38.15-.16.06-.32.12-.48.18-.48.2-.94.42-1.37.67-.01,0-.03.02-.04.03-.41.24-.8.49-1.16.77-.02.02-.04.04-.06.06-.35.27-.68.57-.99.89-.03.04-.06.08-.1.12-.29.31-.56.63-.81.98-.05.07-.09.16-.14.23-.22.33-.44.66-.63,1.03-.05.09-.09.2-.14.3-.18.36-.35.73-.51,1.13-.04.12-.08.25-.12.37-.14.4-.28.8-.4,1.24-.04.14-.06.3-.1.44-.11.43-.22.86-.3,1.33,0,0,0,0,0,0l-1.54,8.92c-.97,5.29-2.92,6.96-6.89,8.08l-.84.21,1.08,3.77h0c.38-.18.73-.37,1.07-.57.04-.02.08-.05.12-.07.31-.19.6-.39.88-.61.06-.05.12-.1.18-.15.25-.21.49-.42.71-.65.07-.08.15-.15.22-.23.2-.22.4-.45.58-.69.08-.11.16-.23.23-.34.16-.23.31-.47.45-.72.09-.16.17-.33.25-.49.12-.23.23-.46.34-.71.1-.24.19-.5.28-.75.07-.21.15-.4.22-.62.15-.49.29-.99.41-1.54,0,0,0-.01,0-.02,0,0,0,0,0,0l-3.14,17.94,1.27,4.41-.84,4.66h-6.41l-5.64-21.1h-3.27l-3.69,21.1h-8.36l8.84-50.13h17.33,0s-22.41,0-22.41,0h0l-8.27,46.88-1.46,8.27h0s13.45,0,13.45,0l3.39-19.38,5.18,19.38h10.43l.76-4.23c.07.13.15.26.23.39.09.15.19.3.29.45.17.25.36.49.56.72.6.69,1.31,1.29,2.14,1.78.24.14.48.27.74.39s.52.23.79.34l.22.08.22.08h15.22l.33-.09c1.29-.36,2.4-.81,3.37-1.38.48-.28.93-.6,1.35-.94.26-.22.5-.44.74-.69.55-.57,1.02-1.22,1.43-1.95.82-1.44,1.4-3.2,1.8-5.37l5.85-33.4c.01-.07.02-.13.03-.19Z"/>
    <polygon class="st1" points="357.09 257.4 355.01 257.4 355.01 257.4 361 257.4 362.53 256.08 368.59 221.68 367.48 220.36 361.49 220.36 359.96 221.68 353.9 256.08 353.91 256.09 359.29 225.5 359.44 225.37 362.86 225.37 357.24 257.27 357.09 257.4"/>
    <path class="st1" d="M327.02,236.31h7.31l1.53-1.32,2.37-13.3-1.11-1.32h-7.31l-2.79,15.95ZM332.5,225.37l-1.63,9.17-.29,1.63-.15.13h-3.4l1.91-10.93h3.56Z"/>
    <path class="st1" d="M399.61,262.43c.34-.85.62-1.79.85-2.82.07-.35.14-.7.21-1.07l7.9-44.72h-13.45l-7.66,43.46-.15.13h-1.66,0s5.57,0,5.57,0l1.53-1.32,7.45-42.26h8.36l-7.38,41.78c-.9,5.29-2.92,7.24-6.89,8.36h-14c-2.92-1.11-4.87-3.69-3.97-8.36l7.31-41.78h8.35l-7.45,42.26h0s7.45-42.27,7.45-42.27h-13.45l-7.67,43.81c-.2,1.01-.28,1.97-.27,2.87.01.61.07,1.19.17,1.74.1.56.25,1.09.44,1.59s.43.98.71,1.43c.14.22.29.44.45.65.32.42.69.81,1.09,1.16.61.53,1.31.99,2.11,1.37.26.13.54.24.82.35l.22.08.22.08h14.8l.33-.09c1.09-.31,2.06-.68,2.92-1.14,1.44-.76,2.58-1.75,3.48-3.02.32-.45.6-.94.86-1.47.13-.26.25-.54.36-.82Z"/>
    <polygon class="st1" points="426.73 213.81 423.84 230.46 426.03 243.48 426.66 243.48 431.81 213.81 439.19 213.81 430.42 263.95 423.32 263.95 418.31 234.29 417.75 234.29 412.53 263.95 405.08 263.95 413.92 213.81 420.16 213.81 420.16 213.81 408.84 213.81 408.84 213.81 400.57 260.69 399.11 268.96 399.11 268.96 411.65 268.96 412.16 266.11 415 249.92 415 249.92 418.22 268.96 429.55 268.96 439.2 213.81 426.73 213.81"/>
    <path class="st1" d="M467.87,225.04l-5.35,30.55c-.97,5.29-2.92,7.24-6.89,8.36h-19.91l8.84-50.13h17.33,0s-22.41,0-22.41,0l-9.73,55.15h0s23.25,0,23.25,0l.33-.09c.32-.09.63-.19.93-.29.74-.25,1.41-.54,2.03-.88.39-.21.76-.42,1.1-.67.33-.23.64-.49.93-.75.3-.27.59-.56.86-.88,1.39-1.65,2.27-3.88,2.83-6.88l5.85-33.4c.01-.06.02-.13.03-.19l-.02.11Z"/>
    <path class="st1" d="M445.25,257.4h7.31l1.53-1.32,6.06-34.4-1.11-1.32h-7.31l-6.48,37.04ZM448.8,257.27l-.15.13h-3.4l5.6-32.03h3.57l-5.62,31.9Z"/>
  </g>
  <g>
    <path class="st0" d="M90.28,124.39v-45.76c3.59-32.31,38.48-51.91,70.72-39.98,18.12,6.7,30.32,22.63,32.07,40.87v9.65s11,0,11,0v-7.88c-1.6-34.54-33.21-59.77-69.64-56.14-30.04,3-53.88,26.75-55.16,55.25v40.7s11.01,3.29,11.01,3.29Z"/>
    <path class="st0" d="M155.35,50.19c13.28,4.86,21.98,16.93,22.95,30.21v8.77h10.37v-6.99c-.9-27.08-27.1-46.88-55.46-42.18-21.24,3.52-37.11,20.11-38.54,40.4v43.33s10.4-4.88,10.4-4.88l-.03-40.23c2.53-22.89,27.53-36.76,50.3-28.43Z"/>
    <path class="st0" d="M132.71,127.18c.58-.31,1.19-.59,1.81-.87l.6-3.39c-11.56,4.9-22.93,10.2-33.84,16.73-16.8,10.06-35.91,27.93-22.61,48.82,8.56,13.44,23,20.9,36.9,27.56,5.17,2.51,10.45,4.67,15.8,6.64l1.5-8.6c-.12-.04-.26-.09-.38-.13-2.4,1.04-5.87,3.01-8.32,4.24-3.3-1.27-7.02-3.19-10.32-4.66,2.46-1.25,5.33-2.55,7.84-3.72-1.97-.96-4.77-2.08-6.83-2.96-2.22.84-5.03,2.43-7.36,3.44-.59-.27-1.14-.59-1.7-.92-2.15-1.28-4.42-2.36-6.56-3.66,2.11-1.01,5.49-2.3,7.76-3.25-1.08-.92-3.56-2.31-4.92-3.25-2.39,1.08-5.15,2.09-7.62,3.13-1.69-1.26-3.54-2.55-4.93-4.13,2.03-1.13,4.99-1.89,7.27-2.75-1.54-1.13-2.82-2.12-4.3-3.33-1.91.87-4.84,1.77-6.85,2.42-1.1-1.25-2.11-2.53-3.15-3.83,2.09-.72,4.78-1.4,6.95-2-.98-1.26-1.73-2.04-2.64-3.44-2.1.54-4.48,1.34-6.61,1.95-.62-1.1-1.15-2.17-1.71-3.29,2.05-.72,4.49-1.14,6.68-1.92-.59-1.13-.94-2.14-1.37-3.32-2.29.48-4.5.93-6.81,1.33-.19-.89-.34-1.89-.5-2.79,2.32-.54,4.57-1.03,6.91-1.48.06-1.15.06-2.45.08-3.61-2.37.43-4.68.81-7.07,1.18.03-1.19.04-2.03.22-3.19,2.46-.28,4.91-.62,7.37-.82.05-1.09.42-2.51.67-3.61-2.42.38-4.19.56-6.62.72.27-1.03.68-1.84,1.12-2.81,2.04-.31,4.26-.39,6.33-.51.51-1.29.93-2.24,1.52-3.48-1.8,0-3.67.1-5.49.11.66-.89,1.17-1.51,1.91-2.34,1.71.07,3.43.1,5.14.14.76-1.16,1.78-2.64,2.68-3.66l-4.94-.09c.84-.85,1.44-1.41,2.36-2.18,1.32,0,3.13.17,4.48.27.95-.77,2.36-2.33,3.17-3.25-1.34-.17-2.98-.26-4.37-.4,1.1-.78,1.96-1.39,3.21-1.91,1.08.08,2.6.35,3.69.51.82-.82,2.18-1.84,3.13-2.66-1.14-.23-2.23-.48-3.36-.75,2.74-1.8,3.19-1.06,6.24-1.26,1.06-.71,2.12-1.41,3.14-2.17-.92-.26-2.05-.47-3-.67.9-.52,1.67-.94,2.59-1.4,1.32.17,2.09.34,3.39.66,1.22-.87,2.53-1.52,3.81-2.45l-2.96-.63c1.25-.65,2.38-1.27,3.7-1.79.79.2,1.59.46,2.37.71,1.22-.76,2.42-1.16,3.69-2.03-.73-.22-1.38-.48-2.08-.76,1.02-.49,2.09-.96,3.12-1.43l2.73.47c1.26-.85,2.48-1.4,3.85-2.02l-2.36-.72c3.12-1.46,2.65-1.73,5.83-.7Z"/>
    <path class="st0" d="M199.42,314.33c-8.61-3.96-17.13-8.11-25.71-12.14-6.16-2.89-12.37-5.72-18.48-8.7-8.13-3.95-16.18-8.09-24.18-12.27-26.23-13.7-64.67-34.87-80.53-60.41-7.02-11.3-11.62-24.71-8.47-38.06,2.12-9,6.84-16.71,12.91-23.59,4.42-5.01,9.24-9.42,14.61-13.4,4.86-3.6,10.15-6.7,15.47-9.56,2.57-1.38,5.12-2.83,7.75-4.1,4.05-1.97,8.21-3.67,12.35-5.4,10.38-4.34,20.94-8.19,31.48-12.12l.2-1.13c-2.1.77-4.19,1.53-6.25,2.3l-19.55,7.44c-15.27,5.91-30.11,13.04-43.37,22.7-.67.49-2.13.69-2.9,1.16-1.83,1.11-3.49,2.54-5.16,3.89.87-.06,1.81-.17,2.69-.26-1.04.72-2.23,1.73-3.15,2.61-1.7,1.62-2.61,1.71-4.78,2.06-1.37,1.18-2.9,2.8-4.16,4.1,1.35-.27,2.48-.43,3.84-.6-1.27,1.14-2.34,2.37-3.51,3.59-1.15.2-2.33.38-3.48.56-1.14,1.15-2.8,3.5-3.73,4.86,1.32-.17,2.82-.49,4.14-.74-.94,1.46-1.88,3.07-2.82,4.57l-4.73.8c-.72,1.02-1.84,3.48-2.41,4.67,1.45-.51,3.99-1.08,5.52-1.47-.85,1.76-1.28,3.15-1.84,5-1.81.34-3.82.87-5.65,1.28-.57,1.7-.97,2.99-1.43,4.71,1.96-.69,4.2-1.12,6.27-1.77-.28,1.61-.49,3.62-.71,5.26-2.33.85-5,1.37-7.4,2.16-.07,1.33-.33,3.26-.47,4.63,2.47-.67,5.56-1.54,7.95-2.36.08,1.73.28,3.47.25,5.2l-8.54,2.87c.09,1.6.39,3.28.65,4.86,2.44-.96,6.11-2.24,8.59-2.98.56,2.19.74,3.43,1.6,5.63-3.06,1.18-6.36,2.38-9.36,3.65.57,1.69,1.14,3.34,1.74,5.02,3.19-1.22,6.26-2.47,9.41-3.77.98,2.37,1.96,4.29,3.12,6.58-2.83,1.04-6.94,3.04-9.75,4.31.83,1.77,1.99,3.75,2.9,5.55,3.25-1.44,6.75-3.21,10.02-4.74,1.77,2.49,3.46,4.85,5.33,7.27-3.51,2.06-7.1,3.94-10.69,5.87,1.46,1.74,3.27,3.63,4.82,5.32,3.6-1.94,6.89-3.89,10.42-5.92,2.68,2.88,6.04,5.56,9,8.21-2.42,1.24-9.55,5.06-11.41,6.51.93,1,4.94,4.28,6.06,5.05,3.68-2.04,7.82-4.72,11.45-6.53,3.82,2.99,8.45,6.45,12.53,9.1-3.65,2.25-8.62,4.97-12,7.35,2.41,1.93,5.28,3.53,7.79,5.59,3.96-2.62,8.01-5.06,12-7.68,4.98,3.4,10.52,6.37,15.44,9.7-3.61,2.64-7.7,5.07-11.51,7.84,3.02,1.97,6.27,4.21,9.41,5.93,4.08-2.88,7.9-5.61,12.1-8.29,3.21,1.92,6.65,3.7,9.95,5.49,3.27,1.78,6.51,3.64,9.92,5.13-3.86,3-7.58,5.87-11.33,9.01,1.03.66,3.14,1.67,4.3,2.28l8.92,4.65c2.49-2.31,8.12-7.11,10.84-9.06,5.91,2.66,11.59,5.63,17.36,8.56,3.06,1.55,6.36,2.9,9.37,4.52-.67.84-1.44,1.57-2.24,2.28-2.74,2.45-5.4,5-8.03,7.57.82.47,1.75.88,2.6,1.3,5.43,2.69,10.85,5.38,16.33,7.95,3.3-3.46,6.13-6.76,9.68-10.09,7.82,3.43,16.31,7.6,24.07,11.29.74-.37,1.47-.71,2.22-1.05-4.25-1.7-9.56-4.4-13.86-6.41l-31.86-15.29c-17.92-8.68-35.73-17.52-53.21-27.13-22.72-12.48-45.57-26.17-64.3-44.29-6.41-6.2-11.5-14.5-15.68-22.34-.85-1.6-5.02-11.81-4.57-13.03.23.1.24.24.32.47.42,1.11.68,2.32,1.04,3.46.65,2.04,1.45,4.07,2.3,6.03,2.66,6.12,6.38,12.16,10.67,17.27,19.89,23.65,56.55,43.72,84.07,57.9,5.28,2.72,10.52,5.54,15.83,8.2,7.38,3.69,14.87,7.21,22.3,10.8l31.27,14.85c3.56,1.69,7.11,3.33,10.68,4.99,2.55,1.19,5.14,2.54,7.75,3.58,1.49-.7,3.03-1.35,4.55-2.01-2.96-1.3-5.97-2.51-8.94-3.81-8.02-3.52-16.03-7.17-23.99-10.82Z"/>
    <path class="st0" d="M222.54,295.96c6.53-7.37,13.25-14.71,20.05-21.82h-18.1c-10.03,9.84-20.04,19.79-30.22,29.33-.21.15-.61.51-.78.45-2.05-.75-4.51-1.99-6.48-2.89l-22-9.97,19.58-16.93h-16.81c-4.37,3.43-8.75,6.84-13.18,10.17-.46.31-1.08.76-1.54,1.03-7.51-3.52-14.54-6.87-21.9-10.7.63-.52,1.26-1.02,1.88-1.51-3.06-1.45-5.3-3.72-6.62-6.54-1,.7-1.97,1.39-2.84,2.05l-1.81,1.31c-5.34-2.65-10.53-5.59-15.72-8.52-.7-.4-1.4-.79-2.12-1.16,4.82-3.26,9.58-6.25,14.45-9.39l9.09-5.91,1.58-9.02c-2.15,1.31-4.29,2.65-6.39,3.93l-24.62,15.07c-.52.29-1.05.59-1.58.87-4.99-3.05-8.62-5.68-13.32-8.96,7.45-4.42,15.17-8.66,22.68-13.03,4.49-2.61,9.92-6.09,14.49-8.42,2.71,1.29,6.37,2.82,9.86,4.2l.22-1.25c-24.8-9.94-50-23.84-57.37-42.62-2.44-6.21-2.76-13.8-.03-19.98,1.18-2.67,2.59-5.96,4.66-8.03l.38-.39c-.62,1.4-1.95,2.99-2.71,4.46-15.69,30.15,22.46,50.83,44.7,60.92,3.49,1.59,7.01,3.05,10.58,4.44l.28-1.59c-10.66-4.14-21.08-8.93-31.13-14.89-22.17-13.15-38.68-34.97-16.8-58.02,6.3-6.64,14.83-11.44,22.59-16.15,9.51-5.21,19.57-9.84,29.69-14.12l.51-2.88c-1.52-.36-3.18-.81-4.39-1.12,1.33-.56,3.46-1.55,4.89-1.75l.28-1.56c-25.08,9.14-50.57,17.84-71.27,34.93-7.27,6-12.26,11.7-16.77,19.86-12.51,22.65-1.78,45.63,14.98,62.26,20.31,20.16,44.97,32.89,70.28,45.62,9.61,4.89,19.06,9.33,28.8,13.91,14.16,6.66,28.32,13.11,42.69,19.32,8.84,3.82,17.6,7.89,26.58,11.41,1.66.66,6.45,2.91,7.81,3.26.77-.4,1.51-.8,2.3-1.16-2.87-.96-5.52-2.23-8.33-3.29-8.17-3.07-16.25-7.18-24.38-10.22,1.24-1.62,2.87-3.37,4.24-4.91l9.1-10.09ZM127.74,119.75c2.4.4,4.81.99,7.18,1.55-.79.35-3.98,1.97-4.48,1.81-2.07-.43-5.45-1.34-7.38-1.52,1.04-.43,3.94-1.45,4.68-1.83ZM119.45,122.77c2.55.68,5.23,1.08,7.81,1.69-1.31.65-4.08,2.39-5.35,2.25-2.71-.43-5.27-1.32-7.78-1.71,1.75-.81,3.5-1.6,5.32-2.23ZM110.88,126.33c2.76.8,5.76,1.17,8.38,1.98-1.71.78-3.36,1.8-5.09,2.48-.09.04-.61-.14-.7-.17-2.6-.49-5.83-1.3-8.41-1.97,1.96-.82,3.83-1.59,5.82-2.32ZM101.3,130.43c3.35.37,6.7,1.32,10.08,1.79-1.1.55-4.86,2.6-5.67,2.57-3.45-.62-6.55-1.26-10.04-1.78,1.49-.68,4.24-2.08,5.63-2.58ZM92.42,134.64c3.57.73,7.26,1.26,10.86,1.9-1.7.9-3.29,1.92-4.98,2.84-.16.09-.52.03-.7,0-3.74-.61-7.29-1.11-11.02-1.66,1.02-.54,5.08-2.82,5.83-3.07ZM83.19,139.53c3.43.54,6.87.98,10.31,1.43.69.09,1.38.15,2.06.3-1.03.63-3.93,2.97-4.9,2.68-4.26-.47-8.31-.76-12.48-1.19.74-.46,4.54-3.12,5.01-3.22ZM74.99,145.1c3.82.16,9.72.49,13.52.99-.57.55-3.2,2.9-4.08,3.1-.06.01-.51-.06-.61-.07-4.18-.23-9.45-.24-13.49-.62.75-.64,3.88-3.44,4.66-3.39ZM67.6,150.9c4.74.14,10.13.32,14.86.66-1.28,1.13-2.2,2.1-3.38,3.34-.78.02-1.65.07-2.42.07-3.69.1-11.15.07-14.54.48.82-.79,4.63-4.56,5.48-4.55ZM60.35,157.81c5.38-.34,10.9-.28,16.3-.28-.92,1.15-1.5,2.06-2.27,3.31-.94.1-1.85.21-2.79.33-5.32.52-10.84,1.36-16.12,1.79.73-.93,3.79-5.18,4.88-5.16ZM53.44,166.06c1.51-.26,2.77-.47,4.3-.63,4.89-.57,10.35-1.07,15.17-1.75-.61,1.4-1.18,2.66-1.65,4.11-2.02.4-4.03.75-6.06,1.1-4.97.82-10.04,1.52-14.96,2.52.98-1.73,2.07-3.76,3.2-5.35ZM48.95,174.7c2.69-.7,6.04-1.19,8.83-1.66l12.68-2.25c-.28,1.44-.53,2.73-.61,4.21-7.65,1.45-15.5,3.48-23.12,5.12.54-1.7,1.39-3.82,2.21-5.41ZM45.8,183.8c2.55-.96,8.81-2.31,11.55-2.94,3.86-.88,8.89-2.23,12.72-2.85.22,1.39.42,2.89.7,4.26-2.66.8-5.37,1.46-8.06,2.17-5.88,1.55-11.74,3.22-17.55,5,.22-1.88.45-3.77.64-5.65ZM45.88,198.44c-.5-1.43-.59-4.1-.57-5.61,8.59-2.47,17.81-4.9,26.3-7.53.55,1.5,1.1,2.74,1.76,4.2-5.15,1.92-10.52,3.56-15.77,5.26-3.53,1.14-7.16,2.48-10.68,3.56-.5.14-.68.3-1.03.13ZM48.76,208.62c-.74-1.98-1.62-4.1-2.02-6.17,2.54-1.03,5.33-1.95,7.94-2.86l12.26-4.24c2.53-.87,5.69-1.89,8.11-2.94,1.14,1.76,2.3,3.32,3.54,5.01-9.51,3.43-19.21,7.12-28.67,10.7l-1.17.5ZM54.55,219.24c-1.64-2.48-2.64-4.09-4.01-6.69,6.05-2.49,12.34-4.89,18.46-7.27,3.79-1.47,8.6-3.56,12.35-4.76,1.82,1.73,3.61,3.49,5.45,5.21-10.26,4.31-20.8,8.99-31.14,13.05l-1.1.45ZM63.75,230.27c-1.93-1.71-4.79-4.93-6.18-7l24.13-10.46,5.56-2.41c.7-.31,2.86-1.31,3.51-1.46,1.31.74,6.49,4.36,7.52,5.31-3.03,1.67-7.07,3.32-10.29,4.81l-14.98,7.09c-2.7,1.29-5.7,2.64-8.34,3.99-.33.12-.7.35-.94.14ZM77.66,242.48c-3.54-2.11-6.68-5.15-9.66-7.96,5.07-2.25,10.25-4.9,15.24-7.38,6.54-3.25,13.51-6.64,19.87-10.22l7.19,3.72c1.2.61,3.41,1.65,4.49,2.33-6.01,2.93-11.7,6.27-17.63,9.36-5.94,3.09-12.06,6.06-17.89,9.33-.52.28-1.08.58-1.61.83Z"/>
    <polygon class="st0" points="147.87 109.34 147.68 110.4 147.58 110.96 147.34 112.29 147.25 112.81 146.95 114.51 146.59 116.56 146.37 117.77 146.28 118.3 146.03 119.72 141.53 145.11 149.88 145.11 154.91 116.51 155.23 114.69 155.32 114.13 155.5 113.15 155.67 112.17 155.94 110.59 156.26 108.77 156.5 107.45 156.57 107.03 156.79 105.78 157.4 102.29 164.64 102.29 166.18 102.29 166.32 101.47 167.5 94.98 148.82 94.98 141.6 94.98 141.47 95.7 140.27 102.29 149.12 102.29 147.87 109.34"/>
    <polygon class="st0" points="196.4 94.98 193.07 94.98 191.69 94.98 190.27 94.98 188.67 94.98 188.11 94.98 187.98 95.71 187.83 96.55 187.59 97.9 187.34 99.34 187.25 99.8 186.86 102.03 184.28 116.56 178.32 116.56 175.65 116.56 177.2 107.79 177.65 105.3 177.73 104.84 178.08 102.87 178.32 101.51 178.34 101.38 178.51 100.39 178.72 99.24 178.87 98.39 179.04 97.45 179.16 96.77 179.28 96.06 179.4 95.4 179.48 94.98 178.31 94.98 176.73 94.98 171.12 94.98 171.12 95.01 170.34 99.43 170.08 100.88 169.97 101.5 169.58 103.74 169.29 105.37 169.08 106.55 168.93 107.4 168.71 108.66 168.61 109.21 168.4 110.39 162.28 145.11 170.63 145.11 174.39 123.87 183.03 123.87 179.27 145.11 187.62 145.11 193.07 113.98 196.4 94.98"/>
    <polygon class="st0" points="201.76 94.98 196.85 122.83 192.91 145.11 215.05 145.11 215.06 145.11 216.31 137.8 216.3 137.8 202.59 137.8 205.17 123.18 217.84 123.18 219.17 115.87 206.42 115.87 208.79 102.29 222.22 102.29 222.22 102.29 222.23 102.29 223.48 94.98 223.48 94.98 204.08 94.98 201.76 94.98"/>
    <path class="st0" d="M139.93,204.53h14c3.97-1.11,5.99-3.06,6.89-8.36l7.38-41.78h-8.36l-7.45,42.26-1.53,1.32h-5.57s0,0,0,0l-.84-1-.26-.31h0s7.45-42.27,7.45-42.27h-8.35l-7.31,41.78c-.9,4.67,1.04,7.24,3.97,8.36Z"/>
    <polygon class="st0" points="179.8 154.4 173.56 154.4 164.71 204.53 172.17 204.53 177.39 174.87 177.94 174.87 182.96 204.53 190.06 204.53 198.83 154.4 191.45 154.4 186.3 184.06 185.67 184.06 183.47 171.04 183.47 171.04 182.71 166.5 180.66 154.4 180.66 154.4 179.8 154.4"/>
    <path class="st0" d="M209.28,154.4c-3.9,1.11-5.92,3.06-6.89,8.36l-1.6,9.33c-.77,4.32.14,6.55,3.2,7.87l10.44,3.76.97,1.53-2.02,11.42-1.53,1.32h-5.99s0,0,0,0l-1.11-1.32h0s1.6-9.13,1.6-9.13h-8.29l-1.53,8.63c-.9,4.6,1.04,7.24,3.97,8.36h14.41c3.97-1.11,5.92-3.06,6.89-8.36l1.39-7.97.49-2.82c.17-1.01.23-1.94.18-2.79-.06-.85-.22-1.61-.5-2.28-.27-.67-.66-1.25-1.14-1.73s-1.07-.86-1.74-1.14l-3.92-1.32-4.36-1.47-2.03-.69-1.11-1.8h0s0-.01,0-.01l1.74-9.89,1.53-1.32h5.99l1.11,1.32-1.53,8.84h8.29l1.46-8.36c.23-1.29.25-2.42.09-3.41,0,0,0,0,0,0-.35-2.19-1.55-3.68-3.23-4.56-.05-.03-.09-.05-.14-.07-.22-.11-.45-.22-.69-.31h-14.41Z"/>
    <polygon class="st0" points="226.13 197.22 224.88 204.53 237.34 204.53 238.66 197.22 236.57 197.22 242.84 161.71 244.92 161.71 244.92 161.71 244.93 161.71 245.55 158.05 246.18 154.4 246.18 154.4 246.18 154.4 246.18 154.4 233.72 154.4 232.39 161.71 234.48 161.71 228.22 197.22 226.13 197.22"/>
    <path class="st0" d="M247.71,204.53h14.41c3.97-1.11,5.92-3.06,6.89-8.36l3.34-18.94h-12.67l-1.32,7.31h4.39l-2.16,12.12-1.53,1.32h-5.99s0,0,0,0l-1.11-1.31h0s0,0,0,0l6.06-34.4,1.53-1.32h5.99l1.11,1.32-1.6,9.26h8.29l1.03-5.88v-.08s.38-2.12.38-2.12l.12-.69c.1-.57.17-1.12.19-1.63.01-.26.01-.51,0-.75-.02-.48-.07-.94-.16-1.37-.13-.64-.34-1.22-.61-1.73-.18-.34-.39-.66-.63-.95-.48-.58-1.06-1.06-1.72-1.43-.33-.19-.68-.35-1.04-.49h-14.41c-3.9,1.11-5.92,3.06-6.89,8.36l-5.85,33.42c-.9,4.6,1.04,7.24,3.97,8.36Z"/>
    <polygon class="st0" points="280.3 204.53 285.52 174.87 286.08 174.87 291.09 204.53 298.19 204.53 306.97 154.4 299.59 154.4 294.43 184.06 293.81 184.06 291.61 171.04 291.41 169.9 288.79 154.4 287.94 154.4 281.69 154.4 272.85 204.53 280.3 204.53"/>
    <polygon class="st0" points="325.63 204.53 326.88 197.22 313.16 197.22 315.74 182.6 328.41 182.6 329.74 175.28 316.99 175.28 319.36 161.71 332.8 161.71 333.95 154.98 333.95 154.98 334.02 154.59 334.05 154.4 334.05 154.4 334.05 154.4 312.33 154.4 303.49 204.53 325.63 204.53"/>
    <path class="st0" d="M350.21,204.53c3.97-1.11,5.92-3.06,6.89-8.36l5.35-30.55.02-.11.12-.69.36-2.08c.1-.57.17-1.12.19-1.63.01-.26.01-.51,0-.75-.02-.48-.07-.94-.16-1.37s-.21-.83-.36-1.2c-.12-.3-.27-.58-.44-.85-.08-.13-.17-.26-.25-.38-.18-.24-.36-.47-.57-.68-.13-.13-.27-.26-.41-.38-.29-.24-.6-.45-.93-.64-.33-.19-.68-.35-1.04-.49h-19.84l-8.84,50.13h19.91ZM346.31,160.94h7.31l1.11,1.32-6.06,34.4-1.53,1.32h-7.31l6.48-37.04Z"/>
    <path class="st0" d="M139.93,263.95h14c3.97-1.11,5.99-3.06,6.89-8.36l.6-3.42,1.87-10.58.04-.22.25-1.4.21-1.19.36-2.04.56-3.15.24-1.34,3.26-18.44h-8.36l-1.58,8.98-.92,5.21-.32,1.82-.23,1.29-.56,3.19-.34,1.91-.22,1.22-.23,1.31-1.62,9.18-1.44,8.16-1.53,1.32h-5.57s-.64-.76-.64-.76l-.46-.55h0s.3-1.72.3-1.72l3.2-18.16.24-1.37.22-1.26.31-1.78.56-3.17.78-4.42,1.83-10.4h-8.35l-1.93,11.03-.21,1.22-.54,3.07-.29,1.66-.22,1.27-.96,5.51-3.15,18.02c-.35,1.8-.27,3.28.12,4.49.62,1.94,2.05,3.18,3.85,3.86Z"/>
    <polygon class="st0" points="175.48 245.13 175.72 243.74 175.93 242.54 176.31 240.4 176.88 237.14 177.39 234.29 177.94 234.29 178.5 237.6 179.12 241.24 179.52 243.59 179.75 244.97 180 246.44 182.69 262.37 182.96 263.95 190.06 263.95 191.55 255.41 192.51 249.97 192.72 248.73 192.95 247.42 193.34 245.22 193.95 241.74 194.19 240.35 198.83 213.81 191.45 213.81 188.54 230.61 187.76 235.06 187.14 238.62 186.92 239.9 186.32 243.36 186.3 243.48 185.67 243.48 185.62 243.17 184.98 239.38 184.76 238.07 184.73 237.88 183.47 230.46 183.47 230.46 183.34 229.7 183.12 228.38 180.66 213.81 179.8 213.81 173.56 213.81 170.05 233.72 169.8 235.1 169.24 238.28 168.87 240.39 168.66 241.56 167.59 247.63 164.71 263.95 172.17 263.95 175.48 245.13"/>
    <path class="st0" d="M215.27,263.95c3.34-.94,5.25-2.48,6.35-6.09.13-.42.25-.87.36-1.35.07-.29.13-.6.19-.92l.09-.49.42-2.41.66-3.77.25-1.43.87-4.95.6-3.44,2.48-14.17.48-2.76c.05-.29.09-.57.13-.84.06-.54.08-1.06.07-1.54-.02-.48-.07-.94-.16-1.37-.09-.43-.21-.83-.36-1.2-.08-.19-.16-.36-.25-.54-.18-.34-.39-.66-.63-.95-.48-.58-1.06-1.06-1.72-1.43-.33-.19-.68-.35-1.04-.49h-19.84l-4.91,27.84-.25,1.39-.62,3.51-.4,2.25-.23,1.28-2.44,13.86h19.91ZM206.02,250.94l.4-2.3.63-3.61.4-2.32,3.91-22.36h7.31l1.11,1.32-2.87,16.29-1.6,9.06-.65,3.7-.41,2.35-.23,1.32-.24,1.38-.05.3-1.53,1.32h-7.31l.13-.76.78-4.44.22-1.26Z"/>
    <polygon class="st0" points="241.86 221.13 255.3 221.13 256.49 214.2 256.49 214.19 256.56 213.81 256.56 213.81 256.55 213.81 256.55 213.81 234.83 213.81 228.67 248.74 228.43 250.11 227.76 253.91 227.33 256.36 227.07 257.82 226.83 259.17 225.99 263.95 234.96 263.95 248.13 263.95 248.3 262.94 248.55 261.5 249.01 258.84 249.38 256.64 239.44 256.64 235.67 256.64 235.82 255.79 236.5 251.93 236.74 250.54 238.24 242.01 250.92 242.01 252.24 234.7 239.5 234.7 241.86 221.13"/>
    <path class="st0" d="M283.57,233.03l1.54-8.92.34-1.94c.84-4.6-1.04-7.24-3.97-8.36h-19.84l-5.8,32.9-1.63,9.22-.7,3.94-.47,2.67-.25,1.4h8.36l.39-2.22.7-3.99,1.72-9.81.89-5.08h3.27l1.59,5.94.15.56,2.4,8.97.47,1.76,1.03,3.87h6.41l.39-2.19.28-1.55.17-.93-1.27-4.41-.07-.25-2.73-9.53-1.08-3.77.84-.21c3.97-1.11,5.92-2.79,6.89-8.08ZM274.87,234.98l-1.53,1.32h-7.31l2.79-15.95h7.31l1.11,1.32-2.37,13.3Z"/>
    <path class="st0" d="M299.31,243.96h4.39l-2.16,12.12-1.53,1.32h-5.99s-.53-.63-.53-.63l-.57-.68h0s6.06-34.41,6.06-34.41l1.53-1.32h5.99l1.11,1.32-1.6,9.26h8.29l1.04-5.96.49-2.81c.31-1.72.24-3.17-.12-4.37-.12-.4-.27-.77-.46-1.11-.18-.34-.39-.66-.63-.95-.36-.44-.77-.81-1.24-1.13-.31-.21-.64-.4-.99-.56-.17-.08-.35-.16-.54-.23h-14.41c-3.9,1.11-5.92,3.06-6.89,8.36l-5.85,33.42c-.46,2.34-.18,4.18.6,5.56.47.83,1.11,1.5,1.88,2.02.46.31.96.57,1.5.77h14.41c3.97-1.11,5.92-3.06,6.89-8.36l3.34-18.94h-12.67l-1.32,7.31Z"/>
    <path class="st0" d="M344.57,233.03l1.54-8.92.34-1.94c.84-4.6-1.04-7.24-3.97-8.36h-19.84l-8.84,50.13h8.36l3.69-21.1h3.27l5.64,21.1h6.41l.84-4.66-1.27-4.41h0s-.6-2.1-.6-2.1l-2.2-7.68-1.08-3.77.84-.21c3.97-1.11,5.92-2.79,6.89-8.08ZM335.86,234.98l-1.53,1.32h-7.31l2.79-15.95h7.31l1.11,1.32-2.37,13.3Z"/>
    <path class="st0" d="M376.32,224.93l.48-2.76c.84-4.6-1.04-7.24-3.97-8.36h-14.41c-3.9,1.11-5.92,3.06-6.89,8.36l-5.85,33.42c-.9,4.6,1.04,7.24,3.97,8.36h14.41c3.97-1.11,5.92-3.06,6.89-8.36l5.35-30.55.02-.11ZM362.53,256.08l-1.53,1.32h-5.99s-1.11-1.31-1.11-1.31h0s6.06-34.4,6.06-34.4l1.53-1.32h5.99l1.11,1.32-6.06,34.4Z"/>
    <path class="st0" d="M400.2,213.81l-7.45,42.26-1.53,1.32h-5.57s-.33-.39-.33-.39l-.78-.92h0s7.45-42.27,7.45-42.27h-8.35l-7.31,41.78c-.9,4.67,1.04,7.24,3.97,8.36h14c3.97-1.11,5.99-3.06,6.89-8.36l7.38-41.78h-8.36Z"/>
    <polygon class="st0" points="431.81 213.81 426.66 243.48 426.03 243.48 423.84 230.46 421.02 213.81 420.16 213.81 420.16 213.81 413.92 213.81 405.08 263.95 412.53 263.95 417.75 234.29 418.31 234.29 423.32 263.95 430.42 263.95 439.19 213.81 431.81 213.81"/>
    <path class="st0" d="M464.4,213.81h-19.84l-8.84,50.13h19.91c3.97-1.11,5.92-3.06,6.89-8.36l5.35-30.55v-.08s.02-.03.02-.03l.48-2.76c.84-4.6-1.04-7.24-3.97-8.36ZM454.1,256.08l-1.53,1.32h-7.31l6.48-37.04h7.31l1.11,1.32-6.06,34.4Z"/>
  </g>
</svg>